<svg xmlns="http://www.w3.org/2000/svg" viewBox="0 0 43.8 52.27"><g id="Capa_2" data-name="Capa 2"><g id="bug"><path d="M6.11,16.16c1.62-.07,2,2,6.25,4.41,3,1.7,3.46,1.08,4.77,2.21,3.37,2.9,2.54,9.13,1.84,14.32A35.32,35.32,0,0,1,16,47c-1.33,3.17-2,4.76-3.31,5.14-3.12.93-7.42-4.79-9.18-7.71A25.75,25.75,0,0,1,.23,27.92C.89,23.11,3.2,16.29,6.11,16.16Z" style="fill:#fff"/><path d="M26.31,25c1.61-2.35,3.07-1.86,5.88-4.78s2.69-4.67,4-4.77c2.46-.19,4.76,5.77,5.51,7.71A24.58,24.58,0,0,1,43.58,36a22.35,22.35,0,0,1-3.67,9.55c-.89,1.25-5.39,7.61-9.19,6.61-2.77-.72-3.8-5-5.14-10.65a32,32,0,0,1-.87-9.31C24.9,28.78,25,26.89,26.31,25Z" style="fill:#fff"/><path d="M11.62,13.22a13,13,0,0,0,8.45,5.15c6.89,1,11.49-4.45,11.75-4.78l-3.3-2.94,5.71-7-5.34-2.2-4.23,7L17.4,10,11.62,0,8,2.57,14.19,11Z" style="fill:#fff"/></g></g></svg>