<svg xmlns="http://www.w3.org/2000/svg" viewBox="0 0 48.23 49.45"><g id="Capa_2" data-name="Capa 2"><g id="Capa_21" data-name="Capa 21"><path d="M42.33,7.85C35-.31,24.77,0,23.59,0A24.43,24.43,0,0,0,8.16,6.63c-6.4,6-10.47,16.54-6.73,26.69C6.15,46.13,19.76,48.79,20.9,49c2,.35,10.68,1.9,18.24-3.79C46.2,39.89,47.4,31.93,47.84,29,48.22,26.52,49.78,16.16,42.33,7.85ZM38.29,38c-5.69,5.37-14,6.1-14.45,5-.17-.36.58-.91,1.71-2.08a31.85,31.85,0,0,0,5.88-9.3c.3-.76,3.28-8.38.12-15.43-2.66-5.95-8.55-8.95-7.84-10,.27-.41,1.21-.23,2.21,0,5.76,1.31,8.64,2,11.63,4.53A18.74,18.74,0,0,1,44,23.4C44.08,24,44.5,32.1,38.29,38Z" style="fill:#fff"/></g></g></svg>