<svg xmlns="http://www.w3.org/2000/svg" viewBox="0 0 48.42 57.45"><g id="Capa_2" data-name="Capa 2"><g id="dragon"><path d="M45.37,21.49c-1.06-1.87-5-8.77-12.68-10.47a16.67,16.67,0,0,0-6.06-.18Q27.74,5.41,28.84,0l-11,10.47L7,18.37,0,33.06l27.92-6.79a9.62,9.62,0,0,1,5.69,12.85c-.15.38-2.17,5.35-7.34,6.43a10.24,10.24,0,0,1-6.9-1.1A10.72,10.72,0,0,1,15.61,41l1.29,4.41-5-3.86,2.94,5.14L9.55,43,7,37.84v4.59l5.69,6.06L7,44.63,3.31,36.37a21.09,21.09,0,0,0,4.59,14c6.68,8,17.22,7.22,19.47,7a24.45,24.45,0,0,0,16-8.82,24.87,24.87,0,0,0,2-27Zm-30.31,2-5,1.65,5-6.24Z" style="fill:#fff"/></g></g></svg>