<svg xmlns="http://www.w3.org/2000/svg" viewBox="0 0 45.14 48.94"><g id="Capa_2" data-name="Capa 2"><g id="pelea"><path d="M5.46,14.45c-3.42,1-4.92,6.36-5,6.74-1.12,4.26.13,7.92,1.23,11C2.85,35.52,4.44,40,8.77,43.72c7.88,6.76,18,5.1,19.1,4.89,1.42-.25,11.21-2.17,15.31-10,1.15-2.2,1.36-6.41,1.83-14.81s-.6-5.65-.12-10.41c.19-1.82.51-3.84-.73-5.39A5.47,5.47,0,0,0,40.74,6.2c-.37,0-2.93-.45-3.93.9-.37.51-.17.78-.49,2.21s-1,3.11-1.22,3.06-.16-1.86,0-5c.1-2.16.19-2.73-.25-3.43a4.13,4.13,0,0,0-3.18-1.59,3.76,3.76,0,0,0-2.94,1.1c-.56.7-.45,1.37-.55,3a15.77,15.77,0,0,1-.89,4.86c-.16,0,.07-4.81.09-5.25.11-2.13.17-2.53-.12-3.18C26.38.87,23.89.35,23.34.25,23,.18,20.08-.3,18.57,1.47a4.38,4.38,0,0,0-.86,2.21,16.36,16.36,0,0,0,0,6.49,44.32,44.32,0,0,1-.49-4.66c-.18-2.9-.07-3.85-.86-4.65A3.77,3.77,0,0,0,13.55,0,5.86,5.86,0,0,0,9.38,2.08C8.44,3.22,8.13,4.56,8,7.35c-.14,4.29.46,5.88.73,10.41.23,3.79.1,7.58-.12,7.59a9.22,9.22,0,0,1-.49-2.94c-.12-1.72.06-2.3,0-4.53-.08-2.51-.35-3-.74-3.31A2.4,2.4,0,0,0,5.46,14.45Z" style="fill:#fff"/></g></g></svg>