<svg xmlns="http://www.w3.org/2000/svg" viewBox="0 0 42.54 57.67"><g id="Capa_2" data-name="Capa 2"><g id="fire"><path d="M34.9,52.22c.25.59-4.18,4.12-10.29,5.14A21.32,21.32,0,0,1,8.45,53.69,21.23,21.23,0,0,1,.74,41.57c-2.09-8.26.82-16.22,1.83-16.17s1.07,5.9,1.84,5.88,0-4.41,2.57-7.71c1.86-2.35,3.47-1.71,7-4.05.91-.6,5.94-3.94,7.35-9.18C22.76,4.93,19.49.63,20.57.05s4.66,3.33,6.25,7.35a14.41,14.41,0,0,1,1,6.8c-.07.51-.18,1.05-.18,1.05s-.17.87-.41,1.7c-.72,2.51-1.62,3.5-1.47,4.78.2,1.72,2.25,3.6,4,3.3,2.13-.35,2.85-3.6,2.94-4,.59-2.86-1-4.67-.37-5.14.89-.7,5.88,2.29,8.45,7.35,2.71,5.33,1.61,10.74,1.1,13.22A18.63,18.63,0,0,1,37.47,46c-3.61,3.91-8.72,5.46-9.18,4.78s2.43-1.94,4-5.51c2.35-5.21-.09-11.05-.37-11a12.3,12.3,0,0,1-.73,5.51,9.17,9.17,0,0,1-2.94,3.67c-1.86,1.35-4.61,2.21-5.14,1.47s2.67-2.85,2.61-6.2c0-2.16-1.48-4.61-3.25-4.88-2.23-.34-4.39,2.83-5.24,4.84-1,2.39-.71,4.37-1.1,4.4-.78.08-1.55-7.61-2.42-7.58s-2.3,5.64-.16,10.89a13.33,13.33,0,0,0,6.25,7C26.59,56.49,34.58,51.44,34.9,52.22Z" style="fill:#fff"/></g></g></svg>