<svg xmlns="http://www.w3.org/2000/svg" viewBox="0 0 55.06 48.63"><g id="Capa_2" data-name="Capa 2"><g id="fly"><path d="M54.85.26c-1.54-1.85-9.52,6.62-25.28,10-9.36,2-12.56.28-18.8,4-2.14,1.27-9.64,5.71-10.66,14C-.68,34.65,3,39.54,3.79,40.67c4.83,6.51,12.18,7.48,14,7.71A18.71,18.71,0,0,0,29.5,46.55c5.11-2.83,8-8.08,7.35-8.82-.44-.48-2.18,1.17-6.25,2.2-3.22.83-6.51.84-6.61.37s4.17-1.2,9.55-4c5.83-3.08,9.77-7,9.55-7.35s-2.67,2-7,3.31c-5.16,1.61-10.5,1.22-10.65.37s5.38-1.52,12.86-5.51c7-3.76,12.16-8.55,11.75-9.19s-4.74,2.58-12.49,4.41C31.63,23.71,26,23.79,25.83,23c-.22-1,10.38-1.81,19.83-9.55C51.62,8.61,56.11,1.78,54.85.26Z" style="fill:#fff"/></g></g></svg>