<svg xmlns="http://www.w3.org/2000/svg" viewBox="0 0 51.07 52.53"><g id="Capa_2" data-name="Capa 2"><g id="ghost1"><path d="M47,46.66c-1.38,0-3.52-.41-3.8-1.47s1.54-1.79,3.43-4.41a18.22,18.22,0,0,0,2.21-4.28,29.54,29.54,0,0,0,1.83-14.33,25.85,25.85,0,0,0-7-13.71C42.3,7,35.48-.26,25.47,0A22.35,22.35,0,0,0,16.9,2.09C14.37,3.16,5.16,7.07,1.47,17A25.52,25.52,0,0,0,6.12,42c4.94,5.73,11.07,7.15,19.35,9.06,5.44,1.26,12.11,2.7,18.73-.37,4-1.85,7-4.9,6.86-5.14S49.37,46.65,47,46.66ZM22.53,24.86a5.29,5.29,0,0,1-2.45,2.33,5.64,5.64,0,0,1-5.63-1.1c-.55-.46-2.57-2.33-2.08-4.78.41-2.08,2.49-3.82,3.74-3.46s.79,2.75,2.43,3.59,3.87-1.11,4.72-.25S23.06,24,22.53,24.86ZM36,26.33a5.18,5.18,0,0,1-4,1.35A6.16,6.16,0,0,1,26.82,24c-.5-1.15-.73-2.79-.13-3.19s1,.39,2.45.62c.38.06,2.21.35,3.19-.49,1.53-1.32.08-4.66,1-5,.58-.25,1.62,1,2.08,1.59a7.53,7.53,0,0,1,1.83,4.41A5.48,5.48,0,0,1,36,26.33Z" style="fill:#fff"/></g></g></svg>