<svg xmlns="http://www.w3.org/2000/svg" viewBox="0 0 47.09 50.07"><g id="Capa_2" data-name="Capa 2"><g id="planta"><path d="M7.94,42.08a23.11,23.11,0,0,1-6.62-9.91c-.57-1.71-2.66-8,0-14.32,2.83-6.75,9.33-9.6,15.07-12.11,1.28-.57,5.51-1.6,14-3.67,9.1-2.23,12-2.75,13.6-1.11,1.17,1.23.67,2.73.73,6.61.1,6.84,1.72,7.79,2.21,13.59.29,3.47.81,9.76-2.58,16.15A24.84,24.84,0,0,1,32.92,48a27,27,0,0,1-16.17,1.47c-1.59-.38-4.85-1.19-5.14-2.94-.22-1.31,1.37-2.35,3.31-4.41a28.73,28.73,0,0,0,5.14-7.71l11-1.46-7.53-1.84,3.12-6h8.45l-6.61-2.78L34,13.81l-7.35,6.61-3.12-4V25l-3.49,3.83-3.67-6.61V32.54Z" style="fill:#fff"/></g></g></svg>