<svg xmlns="http://www.w3.org/2000/svg" viewBox="0 0 57.35 51.43"><g id="Capa_2" data-name="Capa 2"><g id="ice"><polygon points="12.24 0 26.12 8.08 26.12 22.78 12.24 15.43 12.24 0" style="fill:#fff"/><polygon points="0 25.71 12.24 19.1 26.12 25.71 13.06 33.06 0 25.71" style="fill:#fff"/><polygon points="26.12 28.65 13.06 36 13.06 51.43 26.12 44.08 26.12 28.65" style="fill:#fff"/><polygon points="30.16 22.78 30.16 8.08 43.02 0 43.02 15.43 30.16 22.78" style="fill:#fff"/><polygon points="30.16 26.08 43.02 19.1 57.35 26.08 43.76 33.06 30.16 26.08" style="fill:#fff"/><polygon points="30.16 28.65 43.02 36.37 43.02 51.43 30.16 44.82 30.16 28.65" style="fill:#fff"/></g></g></svg>