<svg xmlns="http://www.w3.org/2000/svg" viewBox="0 0 49.59 49.74"><g id="Capa_2" data-name="Capa 2"><g id="normal"><path d="M49.58,23.53a24.41,24.41,0,0,0-4-12.49C38.67.79,26.46.06,25.51,0c-2.25-.09-12.76-.25-20,8.27C-2.22,17.35.32,28.51.72,30.14c2.68,10.91,11.62,15.79,13,16.54,1.94,1,9.65,4.9,18.55,2a23.83,23.83,0,0,0,11.57-8.64A25.38,25.38,0,0,0,49.58,23.53ZM36,31.8a14.39,14.39,0,0,1-7.34,5.88c-4.55,1.52-10.8.82-14.7-3.68-4.8-5.54-2.48-12.78-2.2-13.59,1.91-5.63,7.31-9.95,13.22-10.1a13.59,13.59,0,0,1,8.64,2.94,13.58,13.58,0,0,1,4.77,8.81A14.38,14.38,0,0,1,36,31.8Z" style="fill:#fff"/></g></g></svg>