<svg xmlns="http://www.w3.org/2000/svg" viewBox="0 0 50.88 49"><g id="Capa_2" data-name="Capa 2"><g id="polvora2"><path d="M48.63,13.6A23.65,23.65,0,0,0,37.85,2.33C31.71-.73,26.09,0,22.67.37,18.07.93,10.22,1.89,4.79,8.7h0A21.66,21.66,0,0,0,1,17.06C.4,19.6-1.67,28.59,2.83,32.94c1.86,1.8,3.45,1.68,4.41,3.68,1,2.16-.81,3.41,0,6.59a6.83,6.83,0,0,0,3.23,4.55,5.91,5.91,0,0,0,6.11-.37c1.44-1.13,1.36-2.64,2.2-2.68,1.33-.07,1.7,3.65,4.1,4.23a5.2,5.2,0,0,0,2.52-.32,7.13,7.13,0,0,0,3.18-1.47c1.53-1.4,1.24-3.08,2-3.19,1-.14,1.25,3.07,3.68,4.41a6,6,0,0,0,6-.44,6.88,6.88,0,0,0,2.58-3.75c1.06-3.07-.34-4.22.81-6.59.74-1.53,1.5-1.41,3.29-3.54a22,22,0,0,0,3-5C52.59,22.62,49.06,14.57,48.63,13.6ZM37.36,28.05c-3.73,4.27-9,4.74-10.77,4.89s-7.26.65-12-3.18c-.79-.63-6-4.85-5.39-10.29.74-6.35,9-9.79,14.45-10.28a17.13,17.13,0,0,1,10,2.2c1.78,1,6.38,3.74,6.85,8.57C40.94,24,38.3,27,37.36,28.05Z" style="fill:#fff"/></g></g></svg>