<svg xmlns="http://www.w3.org/2000/svg" viewBox="0 0 50.74 52"><g id="Capa_2" data-name="Capa 2"><g id="hipno"><path d="M47.85,44.82c.44,1-3.65,4.22-8.08,5.88-4.2,1.57-7.8,1.41-13.22,1.1-5.13-.29-7.69-.43-10.65-1.47C14.39,49.81,6.43,47,2.3,39c-4.8-9.42-.78-19,.37-21.68A27.92,27.92,0,0,1,14.43,3.68,24.61,24.61,0,0,1,31.32.37,24.25,24.25,0,0,1,46.75,10.66a22.38,22.38,0,0,1,3.68,16.16c-.32,1.81-2.24,11.22-11,15.06-6,2.65-14.58,2.32-19.84-3.3-3.54-3.79-6-10.39-3.31-16.17a13.83,13.83,0,0,1,8.08-7c.92-.29,6.69-2.13,10.29,1.1a10.37,10.37,0,0,1,2.85,5.26,11.46,11.46,0,0,1,.17,2.31s0,.44-.08.88a9.05,9.05,0,0,1-2.94,5.51A7.72,7.72,0,0,1,28.39,32c-2.84-.69-5.14-3.22-5.15-5.15,0-.16,0-.31,0-.37.21-1.82,1.76-3.52,2.55-3.3s.09,2.27,1.47,3.67a3.59,3.59,0,0,0,4,.74c1.66-1,1.68-3.78.74-5.51-1.4-2.57-4.82-2.58-5.14-2.57a8,8,0,0,0-7.35,6.61c-.68,4.51,3.54,7.9,6.24,9.18A11.27,11.27,0,0,0,36.1,34.9c5.31-3.06,7-10.56,4.78-16.16-2.6-6.51-10-9.18-15.8-8.45C15.31,11.52,11.82,22.1,11.49,23.15s-2.56,8.62,1.83,15.43c3.4,5.26,8.76,7,11,7.71C36.2,50,47.16,43.21,47.85,44.82Z" style="fill:#fff"/></g></g></svg>