<svg xmlns="http://www.w3.org/2000/svg" viewBox="0 0 38 54.25"><g id="Capa_2" data-name="Capa 2"><g id="got2"><path d="M37.83,33.12c-.46-4-2.14-6.86-5.51-12.61s-3.87-5.2-6.59-10.08C21.9,3.6,21.59.17,19.66,0s-3.06,2.75-6.2,8.38C5.93,21.91,2.67,23.88.73,32.39c-1.12,4.92-.8,7.66,0,9.85a16.05,16.05,0,0,0,5.79,7.41,20.35,20.35,0,0,0,15.3,4.41c.81-.12,9.76-1.55,14.08-9.55A19,19,0,0,0,37.83,33.12Zm-10.53,10a10.15,10.15,0,0,1-5.14,4.41,10.6,10.6,0,0,1-8.57-.37,10,10,0,0,1-4.9-5.75c-1.28-4.24.85-8.65,1.71-8.57s-.16,4.89,2.94,7.59a9.19,9.19,0,0,0,5.15,1.83,9.31,9.31,0,0,0,5.87-.73c2.66-1.49,3.23-4.25,3.8-4S28.67,40.67,27.3,43.16Z" style="fill:#fff"/></g></g></svg>